#!OML:ASF F:\VICON\USERDATA\Patient Classification 1\PLAYGROUND\JustinFriday\JustinFriday.ASF
:FULLY-SPECIFIED
:DEGREES
4364
root 15.773 17.5659 53.8458 -353.656 -220.891 -355.418
lowerback 18.1431 -3.81926 -1.80302
upperback 5.11311 -4.63312 2.80145
thorax -4.24112 -2.06136 4.96479
lowerneck -3.68397 6.08312 -3.64517
upperneck 6.52874 8.23222 2.62931
head 2.43745 4.10301 1.71308
rclavicle 1.72843e-013 -4.50247e-014
rhumerus -54.7937 -29.0879 -31.4074
rradius 25.3635
rwrist -15.3008
rhand -6.28256 -23.4388
rfingers 7.12502
rthumb 19.5607 -52.4748
lclavicle 1.72843e-013 -4.50247e-014
lhumerus -35.6546 25.4263 65.4138
lradius 68.3868
lwrist -5.14748
lhand -34.0579 -23.5617
lfingers 7.12502
lthumb -7.23543 6.2946
rfemur -31.5477 8.53959 5.53599
rtibia 32.8668
rfoot -15.922 -17.488
rtoes 3.36136
lfemur 3.02592 8.64647 -15.623
ltibia 24.1364
lfoot -28.1421 21.304
ltoes -1.59205
4365
root 15.863 17.5543 53.8158 -353.897 -221.08 -355.713
lowerback 18.4544 -3.80164 -1.96598
upperback 5.11631 -4.6352 2.77134
thorax -4.38976 -2.05508 5.04925
lowerneck -3.46736 6.16218 -3.45584
upperneck 6.12362 8.32412 2.47463
head 2.27396 4.14936 1.61031
rclavicle -5.86415e-015 1.46107e-014
rhumerus -55.1433 -29.0841 -31.6207
rradius 25.6173
rwrist -15.9478
rhand -8.64554 -25.076
rfingers 7.12502
rthumb 17.2876 -54.3271
lclavicle -5.86415e-015 1.46107e-014
lhumerus -36.7362 25.7729 66.0269
lradius 66.0173
lwrist -5.08572
lhand -31.7083 -21.1564
lfingers 7.12502
lthumb -4.96705 8.76538
rfemur -31.3995 8.24665 5.24994
rtibia 32.3246
rfoot -15.0832 -17.2963
rtoes 2.19187
lfemur 3.52277 8.32296 -15.7745
ltibia 23.9077
lfoot -27.9547 21.8622
ltoes -2.45337
4366
root 15.9558 17.535 53.7825 -354.143 -221.373 -356.237
lowerback 18.5089 -3.73759 -2.27756
upperback 5.13319 -4.61573 2.68444
thorax -4.38308 -2.04576 5.13171
lowerneck -3.66559 6.30878 -3.2609
upperneck 5.99094 8.51783 2.36564
head 2.27227 4.24662 1.55194
rclavicle 8.02593e-014 -1.37161e-014
rhumerus -55.7689 -29.9753 -30.9867
rradius 25.6464
rwrist -15.4788
rhand -10.6181 -26.3067
rfingers 7.12502
rthumb 15.3884 -55.714
lclavicle 8.02593e-014 -1.37161e-014
lhumerus -37.6499 26.3707 66.4045
lradius 63.8174
lwrist -3.98827
lhand -27.6564 -19.9387
lfingers 7.12502
lthumb -1.05403 10.0385
rfemur -31.5415 7.65981 4.86359
rtibia 32.0494
rfoot -14.3399 -16.4229
rtoes 0.979768
lfemur 3.90167 7.79407 -16.2221
ltibia 23.5714
lfoot -27.8341 22.6802
ltoes -2.52174
4367
root 16.0605 17.5255 53.7505 -354.174 -221.974 -356.432
lowerback 18.4481 -3.65397 -2.4426
upperback 5.2252 -4.54219 2.56087
thorax -4.25687 -2.01342 5.06825
lowerneck -3.90435 6.50749 -3.23904
upperneck 5.78133 8.77617 2.54464
head 2.2313 4.38183 1.61436
rclavicle -2.05245e-014 -7.15625e-015
rhumerus -56.2602 -30.9753 -30.5342
rradius 25.5668
rwrist -14.7107
rhand -12.3298 -27.2928
rfingers 7.12502
rthumb 13.7391 -56.8192
lclavicle -2.05245e-014 -7.15625e-015
lhumerus -38.44 25.7693 67.514
lradius 62.0253
lwrist -6.27784
lhand -30.7427 -15.4704
lfingers 7.12502
lthumb -4.03472 14.4712
rfemur -31.7251 7.35384 4.81523
rtibia 31.9175
rfoot -14.3796 -15.0721
rtoes -0.107282
lfemur 4.4013 7.93951 -16.2563
ltibia 23.1872
lfoot -27.6095 23.2263
ltoes -2.70561
4368
root 16.1668 17.5125 53.7187 -353.788 -222.421 -356.039
lowerback 18.3652 -3.65142 -2.17392
upperback 5.30271 -4.48247 2.58657
thorax -4.15682 -1.98605 4.9215
lowerneck -4.00934 6.64402 -3.10296
upperneck 5.55335 8.9553 2.46185
head 2.17886 4.47195 1.56653
rclavicle -1.00834e-013 5.96354e-016
rhumerus -56.5507 -31.5865 -30.4748
rradius 25.5331
rwrist -14.4259
rhand -14.001 -28.2664
rfingers 7.12502
rthumb 12.1281 -57.8949
lclavicle -1.00834e-013 5.96354e-016
lhumerus -39.2947 25.7998 68.0826
lradius 59.7164
lwrist -7.39566
lhand -29.9427 -15.4429
lfingers 7.12502
lthumb -3.2621 14.5118
rfemur -31.9109 6.44045 5.49069
rtibia 31.8814
rfoot -16.8753 -13.4831
rtoes 3.72596
lfemur 4.86157 7.80153 -15.8735
ltibia 22.9431
lfoot -27.689 23.6828
ltoes -2.68351
4369
root 16.2638 17.5069 53.6806 -353.101 -222.228 -355.409
lowerback 18.4004 -3.84994 -1.32665
upperback 5.1456 -4.5935 2.63872
thorax -4.40059 -2.03688 4.53237
lowerneck -3.90258 6.68103 -2.49136
upperneck 5.36635 8.99242 1.91427
head 2.1484 4.48673 1.28378
rclavicle 8.94531e-016 2.40529e-014
rhumerus -57.0242 -31.7521 -30.5293
rradius 25.5106
rwrist -14.5711
rhand -15.8045 -29.2548
rfingers 7.12502
rthumb 10.3887 -58.9782
lclavicle 8.94531e-016 2.40529e-014
lhumerus -40.342 26.2449 67.9822
lradius 57.0038
lwrist -8.7564
lhand -28.5634 -18.1545
lfingers 7.12502
lthumb -1.93001 11.8165
rfemur -31.9802 5.03567 6.459
rtibia 31.8248
rfoot -14.0438 -13.2714
rtoes -3.83392
lfemur 5.01019 7.34542 -15.2327
ltibia 22.7865
lfoot -27.5399 24.0109
ltoes -3.50034
4370
root 16.3872 17.4928 53.6601 -352.557 -223.237 -354.907
lowerback 18.2325 -3.40456 -1.54421
upperback 5.20221 -4.04138 2.80516
thorax -4.26852 -1.77012 4.7046
lowerneck -3.88052 6.6824 -2.31355
upperneck 4.952 8.98888 1.71871
head 2.0252 4.48415 1.17905
rclavicle 1.07294e-013 -7.20594e-014
rhumerus -57.2186 -31.8995 -30.7669
rradius 25.4137
rwrist -14.8659
rhand -17.5524 -30.0692
rfingers 7.12502
rthumb 8.70231 -59.8698
lclavicle 1.07294e-013 -7.20594e-014
lhumerus -40.6873 26.2299 68.574
lradius 53.9715
lwrist -8.05205
lhand -30.0269 -18.717
lfingers 7.12502
lthumb -3.34347 11.2365
rfemur -32.3127 5.04755 7.24578
rtibia 31.8825
rfoot -11.7855 -12.7869
rtoes -10.876
lfemur 5.41512 7.84663 -14.683
ltibia 22.7581
lfoot -27.5183 24.4508
ltoes -4.74101
4371
root 16.4931 17.4856 53.6296 -352.101 -223.367 -354.602
lowerback 18.128 -3.49446 -1.5291
upperback 5.1724 -4.13479 3.13231
thorax -4.2117 -1.81787 5.05951
lowerneck -4.07182 6.92273 -2.9822
upperneck 4.77201 9.34004 1.92796
head 1.95217 4.65319 1.36308
rclavicle -6.69904e-014 3.37934e-014
rhumerus -56.6297 -31.7011 -31.3
rradius 25.1829
rwrist -14.8673
rhand -18.9249 -30.4852
rfingers 7.12502
rthumb 7.37767 -60.3366
lclavicle -6.69904e-014 3.37934e-014
lhumerus -41.2593 26.8229 69.1047
lradius 51.1169
lwrist -8.08854
lhand -30.1078 -19.3616
lfingers 7.12502
lthumb -3.42154 10.5906
rfemur -32.3862 4.29426 7.84784
rtibia 32.0074
rfoot -10.8221 -11.8744
rtoes -15.0453
lfemur 5.76318 7.97047 -14.2473
ltibia 22.7012
lfoot -27.8026 24.0802
ltoes -4.57885
